<?xml version="1.0" standalone="no"?>
<!DOCTYPE svg PUBLIC "-//W3C//DTD SVG 20010904//EN"
 "http://www.w3.org/TR/2001/REC-SVG-20010904/DTD/svg10.dtd">
<svg version="1.0" xmlns="http://www.w3.org/2000/svg"
 width="915.000000pt" height="915.000000pt" viewBox="0 0 915.000000 915.000000"
 preserveAspectRatio="xMidYMid meet">
<metadata>
Created by potrace 1.11, written by Peter Selinger 2001-2013
</metadata>
<g transform="translate(0.000000,915.000000) scale(0.100000,-0.100000)"
fill="#000000" stroke="none">
<path d="M4029 8376 c-2 -2 -38 -7 -79 -10 -41 -4 -91 -9 -110 -11 -19 -3 -55
-7 -80 -9 -25 -3 -54 -8 -66 -10 -12 -3 -39 -8 -60 -11 -21 -4 -55 -10 -74
-15 -19 -5 -48 -12 -65 -15 -16 -3 -35 -7 -42 -9 -7 -1 -16 -5 -19 -9 -4 -4
-22 -7 -39 -7 -17 0 -35 -3 -39 -7 -3 -4 -13 -8 -21 -10 -44 -9 -188 -52 -205
-62 -8 -4 -42 -16 -75 -26 -33 -10 -68 -25 -77 -33 -10 -8 -18 -12 -18 -8 0 3
-17 -2 -37 -13 -21 -10 -40 -19 -43 -19 -8 0 -64 -23 -80 -33 -8 -5 -22 -12
-30 -16 -36 -15 -99 -46 -145 -72 -27 -15 -86 -47 -130 -71 -44 -24 -82 -46
-85 -50 -3 -4 -21 -15 -40 -26 -19 -10 -39 -25 -43 -31 -4 -7 -13 -13 -18 -13
-6 0 -37 -20 -69 -45 -32 -25 -63 -45 -68 -45 -5 0 -12 -7 -16 -15 -3 -8 -12
-15 -21 -15 -8 0 -15 -4 -15 -8 0 -5 -21 -23 -46 -41 -48 -35 -53 -40 -178
-154 -105 -96 -179 -171 -246 -247 -30 -35 -67 -76 -83 -92 -15 -16 -27 -32
-27 -36 0 -4 -10 -18 -23 -32 -13 -14 -48 -59 -77 -100 -30 -41 -58 -76 -62
-78 -5 -2 -8 -10 -8 -18 0 -8 -3 -14 -8 -14 -4 0 -12 -9 -17 -19 -6 -10 -30
-52 -55 -92 -86 -139 -180 -317 -234 -444 -7 -16 -23 -50 -34 -75 -61 -132
-183 -560 -216 -757 l-5 -33 240 0 c214 0 240 2 229 15 -7 8 -9 15 -5 15 4 0
3 6 -2 13 -5 6 -16 32 -23 57 -8 25 -20 56 -27 70 -7 14 -13 31 -13 38 0 7 -5
21 -12 31 -9 15 -4 44 27 152 20 74 43 143 50 154 7 11 16 34 20 50 7 30 13
45 67 165 52 113 63 135 71 138 4 2 7 10 7 18 0 8 10 31 23 52 13 20 30 52 38
70 8 17 17 32 21 32 5 0 8 7 8 15 0 8 5 15 10 15 6 0 10 5 10 11 0 7 16 34 35
60 19 27 35 54 35 59 0 6 5 10 10 10 6 0 10 6 10 14 0 8 3 16 8 18 4 2 32 37
61 78 30 41 58 77 63 78 4 2 8 8 8 13 0 5 8 17 18 28 9 10 46 52 82 92 61 70
239 249 246 249 2 0 20 16 40 35 30 29 94 84 139 118 5 4 20 15 32 25 11 9 31
24 43 32 12 8 45 32 73 53 29 22 62 43 75 48 12 5 22 13 22 18 0 5 8 12 18 15
24 9 63 32 71 43 3 4 26 18 51 31 25 13 61 32 80 42 19 10 53 27 75 36 22 10
47 23 55 29 20 16 60 25 60 14 0 -5 -4 -9 -9 -9 -5 0 -11 -8 -14 -17 -4 -10
-17 -36 -30 -58 -44 -74 -90 -159 -139 -257 -48 -95 -78 -128 -117 -128 -11 0
-22 -4 -25 -9 -3 -5 -33 -23 -66 -40 -97 -51 -209 -158 -242 -231 -7 -16 -16
-30 -20 -30 -5 0 -8 -6 -8 -12 0 -7 -7 -26 -15 -41 -32 -61 -47 -135 -51 -247
-4 -131 18 -238 67 -322 l28 -47 -20 -68 c-48 -164 -111 -453 -154 -713 -23
-133 -39 -120 143 -120 l158 0 13 88 c7 48 14 101 16 117 2 17 7 41 12 53 7
19 11 21 20 10 7 -7 14 -25 16 -38 2 -14 7 -32 10 -40 3 -8 18 -54 32 -102
l27 -88 165 0 164 0 -6 23 c-4 12 -22 72 -40 132 -36 117 -76 252 -82 273 -6
24 -10 37 -15 52 -13 36 -29 102 -26 106 2 2 26 0 54 -4 118 -19 301 13 397
70 26 15 51 28 55 28 4 0 22 14 40 30 18 17 35 30 38 30 11 0 104 108 104 120
0 5 4 10 8 12 7 3 46 79 85 169 9 19 16 44 16 55 -1 10 4 43 9 72 13 75 5 183
-19 266 -12 39 -21 73 -21 76 0 3 -5 12 -11 20 -19 23 -47 77 -47 89 0 11 73
61 89 61 5 0 21 -21 36 -46 24 -41 26 -52 21 -112 -28 -330 -28 -628 -2 -962
1 -14 -4 -37 -11 -52 -28 -58 -64 -206 -66 -274 -3 -75 -4 -77 -67 -145 -14
-15 -35 -40 -47 -56 -12 -15 -31 -39 -43 -53 -12 -14 -31 -38 -43 -53 -12 -15
-32 -40 -44 -55 -31 -36 -34 -63 -31 -232 l3 -145 50 -6 c28 -4 62 -10 78 -14
l27 -7 0 266 0 266 250 0 c229 0 273 5 240 25 -12 7 -39 63 -43 90 -1 11 -6
25 -9 31 -18 28 12 234 34 234 4 0 8 7 8 15 0 8 5 15 10 15 6 0 10 4 10 10 0
11 71 85 82 85 4 0 14 9 22 20 9 11 16 17 16 12 0 -4 12 -1 28 7 67 35 199 37
275 4 79 -34 157 -106 187 -173 54 -121 50 -228 -12 -340 -37 -66 -38 -71 -38
-242 0 -94 4 -174 9 -178 22 -13 149 69 205 134 61 69 76 88 88 111 7 14 15
27 18 30 21 21 74 179 80 240 4 50 3 126 -4 175 -11 81 -12 84 -19 91 -4 4 -7
15 -7 25 0 22 -82 179 -112 215 -13 15 -36 40 -51 55 -26 26 -27 30 -10 36 10
3 32 16 48 29 17 12 53 34 80 48 28 15 57 31 65 36 35 20 125 59 128 55 2 -2
6 -18 9 -37 11 -73 72 -217 107 -254 6 -6 18 -22 26 -34 22 -34 112 -119 133
-126 9 -3 17 -10 17 -15 0 -5 7 -9 15 -9 8 0 15 -3 15 -8 0 -4 28 -18 63 -32
34 -13 67 -28 74 -33 32 -24 310 -42 342 -23 15 9 17 -30 15 -234 -3 -252 -16
-515 -34 -665 -5 -44 -14 -128 -20 -187 -12 -118 -49 -371 -79 -543 -11 -60
-18 -111 -17 -112 1 -2 29 59 61 134 73 172 277 634 339 768 44 93 47 106 54
210 3 60 7 263 7 450 l0 340 37 40 c21 22 38 44 38 48 0 4 9 17 20 29 11 12
20 28 20 35 0 7 5 13 10 13 6 0 10 9 10 20 0 11 4 20 9 20 5 0 13 15 17 32 3
18 13 42 20 54 8 11 17 40 20 65 3 24 7 58 9 74 13 91 -4 251 -29 284 -16 21
319 8 489 -20 39 -6 81 -13 95 -14 55 -8 109 -28 114 -44 7 -18 21 -42 51 -86
12 -17 42 -75 69 -130 26 -55 54 -112 62 -127 8 -14 14 -32 14 -40 0 -8 5 -19
12 -26 6 -6 13 -20 14 -29 2 -9 7 -26 13 -38 11 -24 24 -58 25 -67 1 -3 4 -10
9 -14 4 -4 7 -14 7 -23 0 -9 6 -27 13 -41 7 -14 19 -47 27 -75 7 -27 17 -54
21 -60 4 -5 8 -13 8 -17 1 -5 1 -9 2 -10 0 -2 2 -10 4 -18 2 -8 6 -25 9 -37
14 -54 17 -69 22 -93 3 -14 10 -45 15 -70 6 -25 13 -56 15 -70 2 -14 7 -37 10
-52 3 -15 7 -41 9 -58 2 -17 7 -47 9 -68 19 -126 28 -266 31 -447 l2 -140 107
-240 c58 -132 111 -251 117 -264 5 -13 12 -21 15 -19 6 7 24 106 38 213 3 22
8 56 10 75 21 147 28 535 14 685 -11 118 -18 179 -23 205 -3 14 -8 45 -11 70
-3 25 -9 61 -14 80 -9 35 -15 65 -25 118 -7 37 -24 110 -36 152 -6 19 -12 42
-13 50 -2 8 -6 22 -10 30 -3 8 -15 44 -26 80 -19 63 -48 150 -68 200 -5 14
-10 27 -10 30 -1 5 -44 103 -92 205 -15 33 -30 67 -34 75 -3 8 -14 29 -24 45
-10 17 -32 55 -49 87 -26 47 -68 117 -146 243 -15 24 -186 255 -204 275 -7 8
-34 39 -60 69 -27 29 -69 76 -95 103 -27 27 -48 51 -48 53 0 2 -25 28 -56 57
-31 29 -77 72 -101 96 -24 23 -46 42 -48 42 -2 0 -17 12 -34 28 -16 15 -42 37
-57 49 -16 12 -40 31 -54 43 -58 51 -288 205 -400 268 -25 13 -49 28 -55 32
-22 17 -150 80 -162 80 -7 0 -13 5 -13 10 0 6 -4 10 -10 10 -9 0 -73 28 -175
75 -16 8 -50 20 -75 26 -25 7 -47 16 -50 20 -11 15 -514 153 -600 165 -14 1
-52 8 -85 14 -33 6 -85 13 -115 15 -30 3 -68 8 -85 11 -32 6 -560 15 -566 10z
m496 -320 c207 -18 331 -40 540 -93 113 -29 138 -43 80 -44 -65 -1 -222 -18
-315 -34 -14 -2 -47 -7 -75 -11 -27 -3 -59 -8 -70 -11 -11 -2 -31 -6 -45 -9
-14 -2 -43 -9 -65 -14 -22 -6 -49 -12 -60 -14 -11 -1 -27 -6 -35 -9 -8 -4 -28
-9 -44 -11 -16 -3 -31 -7 -34 -10 -2 -3 -23 5 -46 18 -50 28 -213 76 -232 69
-8 -3 -14 1 -14 8 0 23 43 164 52 170 9 6 276 3 363 -5z m-715 -45 c-5 -10
-21 -61 -34 -113 -24 -94 -26 -96 -98 -169 -71 -72 -119 -151 -147 -240 -7
-22 -22 -41 -39 -50 -15 -7 -35 -20 -46 -29 -10 -8 -19 -13 -20 -10 -2 5 -87
-46 -177 -106 l-47 -31 -38 18 c-22 10 -54 21 -71 25 -23 4 -33 12 -33 24 0
10 4 20 8 22 4 2 18 23 30 48 12 25 36 68 52 95 17 28 33 58 37 68 3 9 9 17
13 17 4 0 10 8 13 18 7 22 37 71 60 96 9 11 17 24 17 29 0 10 51 80 63 85 4 2
7 8 7 14 0 6 16 32 35 58 19 26 35 52 35 58 0 12 28 23 94 37 16 3 33 8 38 11
5 3 23 7 41 10 18 2 43 6 57 9 37 9 61 13 98 19 19 2 36 7 39 10 12 12 22 -6
13 -23z m1974 -328 c28 -16 53 -31 54 -35 2 -5 12 -8 23 -8 10 0 19 -4 19 -10
0 -5 7 -10 15 -10 8 0 15 -4 15 -10 0 -5 5 -10 10 -10 6 0 16 -5 23 -10 29
-24 117 -80 127 -80 5 0 10 -3 10 -7 0 -5 21 -21 45 -38 25 -16 45 -33 45 -37
0 -5 7 -8 15 -8 9 0 18 -7 21 -15 4 -8 10 -15 15 -15 10 0 53 -35 78 -62 8
-10 19 -18 23 -18 15 0 220 -201 327 -320 35 -39 56 -80 33 -66 -25 15 -366
25 -547 16 -64 -3 -88 3 -119 32 -11 10 -24 18 -30 18 -18 0 -46 33 -46 55 0
12 -3 25 -7 29 -7 7 -9 12 -19 61 -3 17 -8 37 -11 45 -3 8 -7 22 -9 30 -5 29
-47 162 -64 205 -4 11 -16 43 -25 70 -9 28 -24 65 -32 84 -8 18 -16 39 -18 45
-2 12 -11 37 -26 74 -11 28 -8 28 55 -5z m-367 -76 c4 -5 8 -12 9 -15 0 -4 8
-24 17 -46 9 -21 17 -40 17 -42 0 -1 5 -15 12 -31 6 -15 13 -32 14 -38 2 -5
24 -71 50 -145 73 -215 73 -212 15 -216 -25 -2 -52 -6 -60 -10 -9 -4 -22 -9
-28 -11 -7 -1 -19 -5 -25 -6 -26 -8 -74 -27 -88 -37 -8 -6 -24 -14 -35 -19
-47 -20 -195 -150 -195 -170 0 -6 -4 -11 -8 -11 -5 0 -15 -12 -23 -27 -29 -59
-62 -103 -76 -103 -8 0 -27 -6 -41 -13 -15 -8 -43 -21 -62 -30 -66 -29 -136
-64 -190 -94 -30 -17 -74 -41 -98 -54 -79 -44 -224 -131 -232 -139 -3 -3 -18
-14 -34 -24 -24 -15 -52 -19 -155 -21 -124 -2 -193 -15 -273 -49 l-38 -16 -1
62 c-3 160 2 387 10 472 1 4 8 5 17 2 30 -12 109 -19 184 -18 92 2 176 28 272
85 43 25 148 118 148 130 0 5 11 23 24 40 29 39 58 105 76 172 15 54 19 201 7
255 -12 54 -12 54 -20 67 -8 13 33 27 108 38 22 3 46 8 53 10 7 3 34 7 60 10
26 4 58 9 72 11 26 5 39 7 170 18 102 9 142 14 145 18 7 7 194 2 202 -5z
m-1272 -42 c31 -8 77 -37 108 -68 64 -64 87 -200 47 -278 -22 -42 -108 -134
-118 -124 -3 2 -13 0 -23 -6 -37 -19 -97 -21 -158 -3 -161 45 -232 238 -139
378 20 30 47 56 58 56 6 0 13 7 16 15 4 8 14 15 24 15 11 0 21 4 24 8 2 4 19
9 37 10 18 1 34 4 36 6 5 4 55 -1 88 -9z m-1160 -551 c62 -15 195 -118 195
-150 0 -7 3 -14 8 -16 4 -1 15 -21 25 -42 24 -52 33 -153 18 -211 -14 -58 -43
-125 -53 -125 -5 0 -8 -4 -8 -9 0 -22 -102 -110 -133 -115 -7 -1 -19 -6 -27
-11 -18 -11 -25 -13 -107 -21 -45 -5 -80 -1 -128 11 -36 10 -65 21 -65 25 0 4
-16 15 -35 26 -19 10 -35 24 -35 31 0 7 -4 13 -8 13 -8 0 -76 89 -77 100 -1 3
-7 22 -14 42 -12 36 -17 133 -9 188 5 38 45 114 81 152 35 38 117 103 117 93
0 -3 9 -1 20 5 11 6 39 13 62 16 24 4 44 8 46 9 6 5 95 -2 127 -11z m2810
-280 c30 -15 55 -30 55 -35 0 -5 6 -9 14 -9 11 0 57 -46 95 -96 9 -11 33 -79
37 -104 28 -160 -16 -274 -145 -380 -32 -27 -147 -60 -205 -60 -52 0 -166 29
-166 42 0 4 -5 8 -11 8 -6 0 -16 6 -23 13 -8 6 -23 19 -35 27 -27 18 -91 110
-96 136 -2 10 -4 19 -5 19 -15 0 -18 224 -3 234 5 3 15 21 23 39 29 72 155
174 230 186 18 2 34 7 36 9 3 2 36 3 74 1 48 -3 86 -12 125 -30z"/>
<path d="M320 3025 l0 -2255 400 0 400 0 0 995 0 995 885 0 885 0 0 350 0 350
-885 0 -885 0 0 555 0 555 995 0 995 0 0 355 0 355 -1395 0 -1395 0 0 -2255z"/>
<path d="M3525 5268 c-3 -7 -4 -1021 -3 -2253 l3 -2240 403 -3 402 -2 0 2255
0 2255 -400 0 c-311 0 -402 -3 -405 -12z"/>
<path d="M6241 5012 c-68 -147 -180 -393 -248 -547 -68 -154 -137 -307 -153
-340 -122 -254 -559 -1363 -893 -2265 -338 -912 -396 -1075 -389 -1082 5 -5
194 -7 422 -6 l413 3 195 548 195 547 908 0 907 0 15 -43 c205 -585 326 -925
372 -1039 7 -17 37 -18 442 -18 410 0 435 1 428 18 -4 9 -71 193 -150 407
-687 1874 -1044 2763 -1522 3793 l-136 292 -341 0 -341 0 -124 -268z m476
-825 c12 -28 54 -128 93 -222 115 -272 530 -1350 530 -1376 0 -5 -274 -9 -650
-9 -357 0 -650 4 -650 8 0 20 276 758 397 1062 90 226 246 590 253 590 3 0 15
-24 27 -53z"/>
<path d="M6937 3135 c-20 -30 -37 -57 -37 -60 0 -3 -8 -13 -17 -23 -28 -29
-53 -62 -53 -68 0 -3 -6 -11 -12 -19 -7 -7 -22 -25 -33 -41 -11 -15 -27 -35
-35 -44 -8 -8 -31 -36 -50 -60 -19 -25 -49 -61 -67 -80 l-33 -35 203 -3 202
-3 33 38 c50 59 52 62 52 72 0 5 5 11 11 13 7 2 -13 66 -49 163 -34 88 -65
170 -69 183 -8 21 -11 19 -46 -33z"/>
<path d="M1380 4423 c0 -5 27 -57 60 -117 33 -61 60 -111 60 -112 0 -1 19 -35
43 -76 24 -40 46 -80 50 -88 4 -8 15 -27 25 -41 9 -15 30 -48 46 -75 17 -27
54 -82 83 -121 29 -40 53 -77 53 -82 0 -5 7 -11 15 -15 8 -3 15 -12 15 -21 0
-8 4 -15 10 -15 5 0 7 -13 4 -30 l-6 -30 161 0 c116 0 161 3 161 12 0 17 60
109 96 145 95 98 272 128 396 69 71 -34 140 -103 173 -173 l26 -53 84 0 85 0
0 -267 c0 -255 1 -266 18 -247 9 10 24 33 32 49 8 17 17 32 20 35 12 12 40 83
60 156 23 79 32 248 16 302 -3 12 -8 30 -10 41 -14 61 -59 166 -77 176 -5 4
-7 10 -4 15 3 5 -4 15 -16 23 -30 22 -7 30 43 16 24 -7 54 -13 68 -14 14 -1
30 -3 37 -4 6 0 13 -7 15 -13 2 -11 124 -239 165 -311 10 -18 13 43 13 317 l0
338 -37 -8 c-72 -17 -184 -9 -237 15 -67 31 -169 135 -182 185 l-6 26 -165 0
-165 0 6 -32 c6 -33 7 -37 20 -73 5 -11 12 -32 18 -46 7 -20 5 -36 -8 -67 -20
-44 -34 -50 -99 -42 -22 3 -64 3 -92 -1 -43 -4 -53 -2 -54 10 0 9 -2 36 -4 61
-2 25 -5 78 -7 117 l-3 73 -159 0 -159 0 7 -127 c7 -144 15 -242 21 -260 3 -7
1 -13 -3 -13 -5 0 -23 -15 -41 -32 l-33 -33 -34 40 c-19 22 -34 46 -34 53 0 7
-7 15 -15 18 -8 4 -15 10 -15 16 0 5 -19 39 -43 76 -24 37 -47 74 -51 82 -4 8
-27 51 -51 95 l-44 80 -175 3 c-97 1 -176 -1 -176 -5z"/>
<path d="M4466 4274 c-3 -9 -6 -127 -6 -263 l0 -248 26 -39 c15 -21 29 -41 33
-44 4 -3 22 -25 41 -50 19 -24 42 -52 50 -61 8 -9 36 -40 62 -70 25 -30 66
-74 89 -99 44 -45 44 -45 51 -140 8 -108 11 -127 21 -136 4 -4 7 -18 7 -31 0
-13 4 -31 9 -41 19 -38 55 -108 65 -127 6 -11 17 -24 24 -28 6 -4 12 -13 12
-18 0 -13 96 -105 133 -127 15 -9 27 -20 27 -24 0 -4 6 -8 13 -8 7 0 26 37 44
83 17 45 42 112 56 148 l26 67 -29 33 c-16 19 -33 39 -38 45 -58 68 -73 242
-29 335 27 55 69 119 79 119 4 0 20 12 35 26 24 22 57 41 86 49 4 2 8 3 10 4
3 3 44 11 96 19 l45 7 58 140 c32 77 56 145 54 152 -5 12 -16 13 -131 15 -67
1 -110 -3 -165 -17 -37 -9 -43 -11 -73 -23 -16 -7 -32 -12 -37 -12 -41 0 -191
-119 -258 -205 l-23 -29 -16 24 c-9 12 -31 38 -50 57 -18 19 -33 38 -33 43 0
4 -7 10 -15 14 -8 3 -15 11 -15 17 0 7 -6 17 -14 23 -21 17 -166 214 -166 226
0 5 -5 10 -10 10 -6 0 -14 8 -18 18 -8 19 -63 104 -73 112 -3 3 -14 20 -23 38
-19 37 -22 38 -30 16z"/>
<path d="M1250 3711 l0 -111 45 0 c48 0 50 1 36 28 -17 31 -61 152 -61 167 0
7 -4 17 -10 20 -6 4 -10 -33 -10 -104z"/>
<path d="M1606 2621 c-17 -6 -16 -9 10 -41 15 -19 54 -61 86 -93 32 -32 58
-62 58 -68 0 -5 3 -9 8 -9 4 0 43 -35 88 -78 115 -109 173 -161 217 -190 20
-13 37 -29 37 -33 0 -5 5 -9 10 -9 6 0 23 -11 38 -25 15 -14 32 -25 39 -25 6
0 13 -4 15 -9 4 -13 242 -170 303 -201 28 -14 52 -28 53 -32 2 -5 10 -8 18 -8
8 0 14 -4 14 -10 0 -5 9 -10 19 -10 11 0 21 -3 23 -7 2 -5 19 -15 38 -25 58
-27 162 -74 205 -92 22 -9 51 -23 65 -30 14 -7 48 -19 75 -26 28 -8 52 -17 55
-20 3 -4 70 -26 150 -49 80 -23 151 -44 158 -46 9 -3 12 33 12 158 l0 162 -82
24 c-46 13 -102 32 -125 42 -23 10 -46 19 -52 19 -39 0 -63 29 -121 144 -34
66 -66 125 -71 130 -5 6 -9 16 -9 22 0 7 -14 43 -32 81 -18 37 -33 70 -33 73
0 3 -9 23 -19 45 -48 107 -58 134 -60 147 -1 3 -4 10 -8 14 -5 4 -8 15 -8 24
0 9 -9 26 -20 38 -19 21 -30 22 -158 22 -75 0 -147 -3 -159 -6 -20 -5 -21 -9
-11 -28 6 -11 11 -23 11 -26 -1 -3 5 -19 12 -36 7 -17 16 -42 20 -55 4 -13 14
-40 22 -59 8 -19 21 -48 28 -65 7 -16 18 -41 23 -55 6 -14 23 -51 37 -84 14
-32 24 -60 21 -63 -2 -2 -27 12 -55 31 -28 20 -55 36 -61 36 -5 0 -10 5 -10
10 0 6 -6 10 -14 10 -8 0 -16 4 -18 8 -1 5 -30 28 -62 52 -69 50 -92 68 -118
93 -10 9 -21 17 -26 17 -4 0 -15 8 -23 18 -9 9 -38 36 -65 58 -106 90 -117
105 -92 120 8 5 6 10 -8 15 -24 10 -423 10 -448 0z"/>
<path d="M4466 2604 c-3 -9 -6 -100 -6 -203 0 -181 1 -189 23 -214 12 -15 26
-27 30 -27 5 0 18 -11 31 -25 13 -14 26 -25 30 -25 4 0 19 -11 34 -25 15 -14
32 -25 39 -25 6 0 13 -4 15 -8 5 -13 104 -82 117 -82 6 0 11 -4 11 -10 0 -5 6
-10 14 -10 8 0 16 -6 19 -12 2 -7 7 -11 9 -8 8 8 108 279 108 293 0 7 -38 40
-85 73 -47 32 -85 62 -85 67 0 4 -6 7 -14 7 -8 0 -16 3 -18 8 -1 4 -28 27 -58
52 -59 48 -124 106 -176 157 -26 26 -33 30 -38 17z"/>
<path d="M4739 1725 c-5 -4 -62 -11 -176 -21 -46 -4 -88 -13 -93 -19 -7 -8 -9
-68 -8 -156 l3 -144 50 -1 c28 -1 66 1 86 3 l37 5 42 116 c24 65 51 138 61
164 10 26 15 50 10 52 -4 3 -10 4 -12 1z"/>
</g>
</svg>
